:SAMPLES-PER-SECOND 30
:FULLY-SPECIFIED
:DEGREES
683
root  3.87932 29.8733 -15.546 -22.4458 -2.21793 70.9054
Spine  -5.6431 -11.1937 -24.5494
Spine1  -3.65222 21.95 9.60923
Neck  3.97569e-016 0 -2.38542e-015
Head  -19.3871 2.30245 11.3969
R_Clavicle  0.402038 -29.5521 2.44435
R_UpperArm  42.8425 -19.1829 55.0734
R_Forearm  3.25436 -46.4629 39.1999
R_Hand  -1.62302 11.9801 -23.1562
L_Clavicle  -0.702785 23.4616 -0.401747
L_UpperArm  -10.8995 9.56134 25.7574
L_Forearm  -3.09048 26.5086 34.8147
L_Hand  -0.35159 1.69389 -5.4174
L_Thigh  -9.60102 1.86689 -16.6396
L_Calf  -6.25943 0.749042 -5.74799
L_Foot  3.69447 -0.324839 18.0907
L_Toe0  0.153044 0.0480253 -5.18622
R_Thigh  15.0762 1.01352 -28.6103
R_Calf  6.62914 3.10827 9.91654
R_Foot  0.0570024 5.94798 26.0854
R_Toe0  -1.78866 -0.270596 -17.3237
684
root  4.04214 29.8773 -15.4381 -22.9141 -2.69055 70.4094
Spine  -6.25638 -9.8886 -23.8024
Spine1  -4.10118 21.6734 9.84443
Neck  3.97569e-016 0 -2.38542e-015
Head  -18.8135 2.09446 10.8674
R_Clavicle  0.412248 -29.3586 2.30324
R_UpperArm  41.8235 -20.5781 57.3855
R_Forearm  4.97732 -46.0524 38.3003
R_Hand  -1.74985 12.4235 -23.8575
L_Clavicle  -0.701742 23.2247 -0.506583
L_UpperArm  -11.9943 10.885 24.3868
L_Forearm  -1.46246 26.4123 34.6865
L_Hand  -0.396285 1.56276 -6.23849
L_Thigh  -10.0577 2.26005 -14.8318
L_Calf  -9.71907 0.777709 -5.96701
L_Foot  3.98145 0.249932 18.3006
L_Toe0  0.525806 0.0347556 -6.25693
R_Thigh  15.1526 0.85264 -28.7268
R_Calf  6.03751 3.01229 9.63039
R_Foot  -0.146871 5.57202 25.9807
R_Toe0  -1.78868 -0.270187 -17.3237
685
root  4.1726 29.8791 -15.322 -23.5122 -2.83707 69.9005
Spine  -6.65594 -9.20063 -23.1175
Spine1  -4.46466 21.5708 9.7408
Neck  3.97569e-016 0 -2.38542e-015
Head  -18.3466 1.9126 11.2811
R_Clavicle  0.416813 -28.7296 2.24466
R_UpperArm  40.0723 -21.1707 59.2525
R_Forearm  5.66489 -45.5458 36.3159
R_Hand  -1.83652 12.0407 -24.4452
L_Clavicle  -0.698328 22.9067 -0.628622
L_UpperArm  -11.2845 11.445 23.2035
L_Forearm  0.703226 27.1059 35.2756
L_Hand  -0.418182 1.71436 -6.4397
L_Thigh  -10.3392 2.11286 -12.9363
L_Calf  -10.9489 0.728788 -5.61456
L_Foot  4.04671 0.447389 18.2239
L_Toe0  0.505156 0.0309402 -6.13613
R_Thigh  14.9556 0.309408 -28.6041
R_Calf  5.43482 2.84945 9.13216
R_Foot  -0.295359 5.30068 25.9314
R_Toe0  -1.7887 -0.269764 -17.3237
686
root  4.28512 29.8789 -15.207 -24.2417 -2.90213 69.3192
Spine  -6.87827 -8.9724 -22.4979
Spine1  -4.66551 21.7173 9.71085
Neck  3.97569e-016 0 -2.38542e-015
Head  -17.9268 1.55541 12.1367
R_Clavicle  0.417309 -28.0435 2.2475
R_UpperArm  39.0516 -20.4085 60.1631
R_Forearm  5.0336 -45.5026 35.3204
R_Hand  -1.76728 11.3297 -24.1427
L_Clavicle  -0.704752 22.8183 -0.780699
L_UpperArm  -10.1275 11.2922 22.5639
L_Forearm  3.50964 28.1104 35.8865
L_Hand  -0.405752 2.07149 -5.9394
L_Thigh  -10.6487 1.76845 -11.0862
L_Calf  -10.1772 0.645494 -5.00757
L_Foot  3.86174 0.200985 17.861
L_Toe0  0.505156 0.0286104 -6.13615
R_Thigh  14.3682 -0.196656 -28.5341
R_Calf  5.1706 2.69018 8.62834
R_Foot  -0.355002 5.18791 25.8868
R_Toe0  -1.78873 -0.269332 -17.3237
687
root  4.389 29.879 -15.0928 -24.8916 -3.02701 68.8043
Spine  -7.03077 -8.81066 -22.1254
Spine1  -4.74929 21.9469 9.88969
Neck  3.97569e-016 0 -2.38542e-015
Head  -17.6089 0.840559 12.9066
R_Clavicle  0.417597 -27.2661 2.25666
R_UpperArm  39.2048 -18.8606 60.0549
R_Forearm  4.34466 -45.7406 35.4438
R_Hand  -1.66982 10.929 -23.5797
L_Clavicle  -0.716524 22.739 -1.01655
L_UpperArm  -9.73586 11.1293 22.5049
L_Forearm  5.99498 29.0225 36.2957
L_Hand  -0.367433 2.30808 -5.2053
L_Thigh  -11.0241 1.49298 -9.31407
L_Calf  -9.15475 0.503227 -3.97238
L_Foot  3.76366 0.0693551 17.6669
L_Toe0  0.505156 0.0266795 -6.13617
R_Thigh  13.8225 -0.537961 -28.5501
R_Calf  5.08245 2.57537 8.26752
R_Foot  -0.373563 5.14338 25.8076
R_Toe0  -1.78875 -0.268895 -17.3238
688
root  4.48522 29.8761 -14.9731 -25.4111 -3.19754 68.4006
Spine  -7.08709 -8.50457 -21.7229
Spine1  -4.7744 22.1333 9.88741
Neck  3.97569e-016 0 -2.38542e-015
Head  -17.5241 -0.0209027 13.4139
R_Clavicle  0.4181 -26.4184 2.26434
R_UpperArm  40.1387 -16.908 59.243
R_Forearm  4.42955 -45.8966 35.9236
R_Hand  -1.66939 10.9027 -23.5822
L_Clavicle  -0.723727 22.6135 -1.21623
L_UpperArm  -10.5853 11.2 22.8265
L_Forearm  6.88298 29.9884 36.7293
L_Hand  -0.327619 2.1677 -4.7183
L_Thigh  -11.5499 1.30914 -7.53067
L_Calf  -9.14226 0.331194 -2.72171
L_Foot  3.82578 0.224905 17.6579
L_Toe0  0.505156 0.0251259 -6.13618
R_Thigh  13.2269 -0.76235 -28.4563
R_Calf  5.10028 2.45135 7.89081
R_Foot  -0.338036 5.18702 25.6678
R_Toe0  -1.78878 -0.268461 -17.3238
689
root  4.57347 29.8536 -14.8444 -25.7451 -3.38672 68.0223
Spine  -7.02583 -8.18966 -20.9818
Spine1  -4.76932 22.436 9.51908
Neck  3.97569e-016 0 -2.38542e-015
Head  -17.6716 -0.842132 13.7838
R_Clavicle  0.418061 -25.6453 2.29372
R_UpperArm  41.3666 -14.3683 57.9493
R_Forearm  5.23842 -45.983 36.3561
R_Hand  -1.72965 11.0036 -23.9557
L_Clavicle  -0.729302 22.6423 -1.28707
L_UpperArm  -12.7505 11.3163 23.3023
L_Forearm  6.39075 31.2768 37.3889
L_Hand  -0.31012 1.93264 -4.60979
L_Thigh  -12.1821 1.13029 -5.66508
L_Calf  -9.99801 0.187635 -1.67583
L_Foot  3.8389 0.359208 17.4712
L_Toe0  0.505156 0.0239281 -6.13619
R_Thigh  12.5338 -0.876546 -28.2838
R_Calf  5.27589 2.28851 7.38812
R_Foot  -0.232673 5.35697 25.532
R_Toe0  -1.7888 -0.268032 -17.3238
690
root  4.65189 29.8102 -14.7121 -25.707 -3.61783 67.6874
Spine  -6.9358 -7.98925 -20.2088
Spine1  -4.71795 22.9972 9.18359
Neck  3.97569e-016 0 -2.38542e-015
Head  -18.0105 -1.71438 14.0936
R_Clavicle  0.417791 -24.8993 2.34643
R_UpperArm  42.6354 -11.3294 56.1888
R_Forearm  6.56841 -46.0488 36.6521
R_Hand  -1.75667 11.1358 -24.1056
L_Clavicle  -0.739466 22.7607 -1.36903
L_UpperArm  -15.5681 11.472 23.7984
L_Forearm  5.76745 32.6272 38.2245
L_Hand  -0.312996 2.05855 -4.57041
L_Thigh  -12.7079 0.919334 -3.7343
L_Calf  -10.8317 0.0796699 -0.888705
L_Foot  3.75044 0.318916 17.1528
L_Toe0  0.505156 0.0230647 -6.1362
R_Thigh  12.2899 -0.907634 -28.2087
R_Calf  5.41156 2.12765 6.88261
R_Foot  -0.126744 5.54253 25.4966
R_Toe0  -1.78882 -0.267616 -17.3238
691
root  4.71041 29.7506 -14.5922 -25.2603 -3.88571 67.5343
Spine  -6.84558 -7.8281 -19.9696
Spine1  -4.53841 23.6468 9.34088
Neck  3.97569e-016 0 -2.38542e-015
Head  -18.6795 -2.59469 14.3392
R_Clavicle  0.4182 -24.1403 2.40045
R_UpperArm  43.8644 -8.14158 54.0169
R_Forearm  8.09663 -45.9895 36.7262
R_Hand  -1.75059 11.2063 -24.0605
L_Clavicle  -0.749562 22.6832 -1.58514
L_UpperArm  -17.6396 11.7151 24.2417
L_Forearm  5.47269 33.5895 38.9376
L_Hand  -0.294001 2.3264 -4.13205
L_Thigh  -13.0787 0.721553 -1.7048
L_Calf  -11.117 0.00346817 -0.338673
L_Foot  3.70337 0.279372 17.0153
L_Toe0  0.505156 0.022514 -6.1362
R_Thigh  12.7855 -0.909537 -28.1737
R_Calf  5.28632 1.98621 6.44323
R_Foot  -0.0780583 5.64243 25.5888
R_Toe0  -1.78884 -0.267215 -17.3239
692
root  4.74009 29.6727 -14.4992 -24.6094 -4.11371 67.5921
Spine  -6.66358 -7.69565 -20.3267
Spine1  -4.17419 24.1666 9.958
Neck  3.97569e-016 0 -2.38542e-015
Head  -19.8335 -3.24564 14.664
R_Clavicle  0.41911 -23.5877 2.42908
R_UpperArm  44.9647 -4.75137 51.6428
R_Forearm  9.15401 -45.8817 36.6803
R_Hand  -1.76377 11.0981 -24.1843
L_Clavicle  -0.752903 22.4616 -1.80912
L_UpperArm  -18.2381 11.8177 24.624
L_Forearm  5.41861 34.2053 39.3153
L_Hand  -0.228058 2.27229 -3.21133
L_Thigh  -13.4808 0.566634 0.503987
L_Calf  -11.1488 -0.00875138 -0.258864
L_Foot  3.74507 0.393829 16.9943
L_Toe0  0.505156 0.0222546 -6.1362
R_Thigh  13.554 -0.866825 -28.0074
R_Calf  5.05584 1.83074 5.96783
R_Foot  -0.0418989 5.73289 25.7833
R_Toe0  -1.78887 -0.266837 -17.3239
693
root  4.74551 29.5816 -14.428 -23.8745 -4.24353 67.7453
Spine  -6.38276 -7.73289 -20.8649
Spine1  -3.71533 24.6515 10.6284
Neck  3.97569e-016 0 -2.38542e-015
Head  -21.3386 -3.75994 15.3534
R_Clavicle  0.419856 -23.3027 2.42225
R_UpperArm  45.7546 -0.966179 49.1914
R_Forearm  9.51246 -45.9758 36.7215
R_Hand  -1.80749 10.9406 -24.4864
L_Clavicle  -0.760924 22.5252 -1.89173
L_UpperArm  -18.0443 11.5823 25.0478
L_Forearm  5.95156 34.8282 39.5348
L_Hand  -0.148938 2.10086 -2.10855
L_Thigh  -13.964 0.406076 2.81276
L_Calf  -11.3525 0.0532935 -0.718405
L_Foot  3.78822 0.580116 16.8521
L_Toe0  0.505156 0.022265 -6.1362
R_Thigh  14.1782 -0.729432 -27.7515
R_Calf  5.03063 1.66124 5.44581
R_Foot  0.0555625 5.93831 26.0299
R_Toe0  -1.78888 -0.266486 -17.3239
694
root  4.73325 29.4948 -14.3606 -22.9697 -4.2963 67.9022
Spine  -6.12147 -7.96907 -21.3039
Spine1  -3.31044 25.2565 11.0904
Neck  3.97569e-016 0 -2.38542e-015
Head  -22.9282 -4.5728 16.5847
R_Clavicle  0.420762 -22.9464 2.42749
R_UpperArm  46.1402 2.86202 46.5558
R_Forearm  9.88712 -46.1992 36.6946
R_Hand  -1.8393 10.8955 -24.6816
L_Clavicle  -0.78695 23.0759 -1.88336
L_UpperArm  -18.2375 11.1852 25.5948
L_Forearm  7.47315 35.7001 39.9364
L_Hand  -0.0935114 2.28018 -1.24971
L_Thigh  -14.3388 0.183346 4.99609
L_Calf  -11.5849 0.147778 -1.41317
L_Foot  3.80156 0.739869 16.6285
L_Toe0  0.505156 0.0225237 -6.1362
R_Thigh  14.8106 -0.540018 -27.5752
R_Calf  5.22166 1.52155 5.01264
R_Foot  0.220836 6.2598 26.2625
R_Toe0  -1.7889 -0.266168 -17.3239
